<?xml version="1.0" encoding="UTF-8"?>
<!DOCTYPE svg PUBLIC "-//W3C//DTD SVG 1.1//EN" "http://www.w3.org/Graphics/SVG/1.1/DTD/svg11.dtd">
<svg xmlns="http://www.w3.org/2000/svg" version="1.1" width="100px" height="100px" style="shape-rendering:geometricPrecision; text-rendering:geometricPrecision; image-rendering:optimizeQuality; fill-rule:evenodd; clip-rule:evenodd">
<g><path style="opacity:0.992" fill="#171717" d="M 39.5,-0.5 C 46.1667,-0.5 52.8333,-0.5 59.5,-0.5C 62.1201,2.90793 63.7867,6.74126 64.5,11C 67.5225,11.1637 70.1891,10.1637 72.5,8C 74.5,7.33333 76.5,7.33333 78.5,8C 82.6328,11.1311 86.4662,14.6311 90,18.5C 91.4217,21.0301 91.755,23.6967 91,26.5C 89.5962,28.3939 88.4295,30.3939 87.5,32.5C 87.6082,33.4419 87.9415,34.2753 88.5,35C 92.0386,35.1872 95.2052,36.3538 98,38.5C 98.4996,45.1583 98.6663,51.825 98.5,58.5C 95.1745,61.2236 91.3411,62.8903 87,63.5C 84.6437,67.1279 85.477,69.7946 89.5,71.5C 92.1009,75.1101 91.9343,78.7767 89,82.5C 85.8333,85.3333 82.6667,88.1667 79.5,91C 77.1667,91.6667 74.8333,91.6667 72.5,91C 70.5566,89.4445 68.3899,88.2779 66,87.5C 65.228,87.6448 64.5613,87.9781 64,88.5C 63.8128,92.0386 62.6462,95.2052 60.5,98C 53.1667,98.6667 45.8333,98.6667 38.5,98C 36.2288,95.0556 34.8955,91.7223 34.5,88C 33.1667,87.3333 31.8333,87.3333 30.5,88C 26.104,92.1997 21.4374,92.533 16.5,89C 13.2959,86.1312 10.4626,82.9646 8,79.5C 6.80162,75.1912 7.80162,71.5245 11,68.5C 11.6667,67.1667 11.6667,65.8333 11,64.5C 6.52975,64.2332 2.69642,62.5665 -0.5,59.5C -0.5,52.8333 -0.5,46.1667 -0.5,39.5C 2.65811,36.8842 6.32478,35.2175 10.5,34.5C 10.8333,33.8333 11.1667,33.1667 11.5,32.5C 8.45331,29.0728 7.11998,25.0728 7.5,20.5C 9.53112,19.4613 10.8645,17.7946 11.5,15.5C 14.9792,9.76021 19.9792,7.26021 26.5,8C 32.3871,13.578 35.5537,12.4113 36,4.5C 36.9973,2.67694 38.1639,1.01027 39.5,-0.5 Z M 63.5,45.5 C 64.1884,59.6416 57.5218,65.4749 43.5,63C 42.0161,62.3378 40.6828,61.5045 39.5,60.5C 32.7413,52.7865 33.0747,45.2865 40.5,38C 50.8523,32.7471 58.519,35.2471 63.5,45.5 Z"/></g>
<g><path style="opacity:1" fill="#c1c1c1" d="M 42.5,3.5 C 47.1785,3.33418 51.8452,3.50085 56.5,4C 57.9912,7.38133 59.3245,10.8813 60.5,14.5C 62.8284,15.2173 64.9951,16.2173 67,17.5C 69.1561,16.0149 71.3228,14.5149 73.5,13C 75.6354,12.3653 77.6354,12.6986 79.5,14C 82.8002,16.4651 85.1335,19.6318 86.5,23.5C 86.0122,26.4738 84.5122,28.8071 82,30.5C 81.9153,33.361 82.7486,36.0276 84.5,38.5C 88.1849,39.5263 91.6849,40.8596 95,42.5C 95.6667,47.1667 95.6667,51.8333 95,56.5C 91.6187,57.9912 88.1187,59.3245 84.5,60.5C 82.7486,62.9724 81.9153,65.639 82,68.5C 85.325,71.121 86.6583,74.4543 86,78.5C 83.5,81 81,83.5 78.5,86C 76.8333,86.6667 75.1667,86.6667 73.5,86C 71.3333,84.5 69.1667,83 67,81.5C 64.9777,82.7865 62.8111,83.7865 60.5,84.5C 59.3245,88.1187 57.9912,91.6187 56.5,95C 51.467,95.8289 46.467,95.6623 41.5,94.5C 39.9733,91.3404 39.3067,88.007 39.5,84.5C 36.646,84.0761 33.9793,83.0761 31.5,81.5C 29.6414,83.1924 27.6414,84.6924 25.5,86C 23.8333,86.6667 22.1667,86.6667 20.5,86C 18,83.5 15.5,81 13,78.5C 11.9987,74.8461 12.9987,71.8461 16,69.5C 16.8035,65.9297 15.9702,62.7631 13.5,60C 10.4501,59.321 7.45009,58.4877 4.5,57.5C 3.33772,52.533 3.17105,47.533 4,42.5C 7.1631,40.562 10.6631,39.562 14.5,39.5C 15.0114,36.9716 15.6781,34.4716 16.5,32C 16.183,29.6721 15.0163,27.8387 13,26.5C 12.3333,24.5 12.3333,22.5 13,20.5C 15.5,18 18,15.5 20.5,13C 24.7728,12.7161 28.4394,14.2161 31.5,17.5C 33.7513,16.3052 36.0846,15.3052 38.5,14.5C 38.9246,10.4276 40.258,6.76096 42.5,3.5 Z M 63.5,45.5 C 64.1884,59.6416 57.5218,65.4749 43.5,63C 42.0161,62.3378 40.6828,61.5045 39.5,60.5C 32.7413,52.7865 33.0747,45.2865 40.5,38C 50.8523,32.7471 58.519,35.2471 63.5,45.5 Z"/></g>
<g><path style="opacity:0.251" fill="#767676" d="M 11.5,15.5 C 10.8645,17.7946 9.53112,19.4613 7.5,20.5C 8.1237,18.246 9.45703,16.5794 11.5,15.5 Z"/></g>
<g><path style="opacity:0.987" fill="#131313" d="M 43.5,30.5 C 61.1551,28.9893 69.3217,36.9893 68,54.5C 66.2639,61.2366 62.0972,65.7366 55.5,68C 42.6093,70.8064 34.1093,65.9731 30,53.5C 29.3095,42.7096 33.8095,35.043 43.5,30.5 Z M 63.5,45.5 C 64.1884,59.6416 57.5218,65.4749 43.5,63C 42.0161,62.3378 40.6828,61.5045 39.5,60.5C 32.7413,52.7865 33.0747,45.2865 40.5,38C 50.8523,32.7471 58.519,35.2471 63.5,45.5 Z"/></g>
<g><path style="opacity:1" fill="#131313" d="M 76.5,47.5 C 78.8896,47.6848 79.8896,49.0182 79.5,51.5C 77.9288,65.8891 70.2621,74.7224 56.5,78C 55.5494,77.2825 55.3828,76.4491 56,75.5C 68.7564,70.5677 75.5897,61.2343 76.5,47.5 Z"/></g>
<g><path style="opacity:0.388" fill="#303030" d="M 63.5,45.5 C 66.6924,53.3982 64.3591,59.5649 56.5,64C 51.0164,66.1482 45.6831,65.8148 40.5,63C 39.7476,62.3292 39.4142,61.4959 39.5,60.5C 40.6828,61.5045 42.0161,62.3378 43.5,63C 57.5218,65.4749 64.1884,59.6416 63.5,45.5 Z"/></g>
<g><path style="opacity:0.024" fill="#3d3d3d" d="M 98.5,58.5 C 98.4894,60.0174 97.8228,61.1841 96.5,62C 93.692,62.9932 90.8587,63.8266 88,64.5C 87.3996,67.0953 87.8996,69.4287 89.5,71.5C 85.477,69.7946 84.6437,67.1279 87,63.5C 91.3411,62.8903 95.1745,61.2236 98.5,58.5 Z"/></g>
<g><path style="opacity:1" fill="#151515" d="M 47.5,75.5 C 48.5,75.5 49.5,75.5 50.5,75.5C 49.5,80.8333 48.5,80.8333 47.5,75.5 Z"/></g>
</svg>
